PathFileType	4	(X/Y/Z)	38_2_102_p1_0-415_filt_butterworth.trc
DataRate	CameraRate	NumFrames	NumMarkers	Units	OrigDataRate	OrigDataStartFrame	OrigNumFrames
59.0	59.0	6	27	m	59.0	155	415
Frame#	Time	RHip			RKnee			RAnkle			RBigToe			RSmallToe			RHeel			LHip			LKnee			LAnkle			LBigToe			LSmallToe			LHeel			Neck			Head			Nose			RShoulder			RElbow			RWrist			RThumb			RIndex			RPinky			LShoulder			LElbow			LWrist			LThumb			LIndex			LPinky			
		X1	Y1	Z1	X2	Y2	Z2	X3	Y3	Z3	X4	Y4	Z4	X5	Y5	Z5	X6	Y6	Z6	X7	Y7	Z7	X8	Y8	Z8	X9	Y9	Z9	X10	Y10	Z10	X11	Y11	Z11	X12	Y12	Z12	X13	Y13	Z13	X14	Y14	Z14	X15	Y15	Z15	X16	Y16	Z16	X17	Y17	Z17	X18	Y18	Z18	X19	Y19	Z19	X20	Y20	Z20	X21	Y21	Z21	X22	Y22	Z22	X23	Y23	Z23	X24	Y24	Z24	X25	Y25	Z25	X26	Y26	Z26	X27	Y27	Z27	
155	2.6271186440677967	0.3682734796102044	0.7396453311042551	0.5497185886977147	0.3537427871112261	0.858458741085535	0.9455845960781849	0.36054392109609074	1.0680912510491387	1.3629742906707714	0.33036599512031845	0.8845601251478619	1.4317787480695465	0.40051593849396244	0.8784610399014031	1.4299943113663784	0.3534173756520691	1.174354218192385	1.4103609932164347	0.18425079387252077	0.7311692499615519	0.5371254915086289	0.16572130572790628	0.938612774207789	0.9448654849245655	0.16407445583617747	1.0607629943619765	1.3289076322494202	0.1573157340307987	0.8700651000434559	1.4032372453497928	0.10703633649249696	0.936446832871792	1.4073185384046973	0.20024784873861112	1.1537114601614962	1.3995523602922753	0.2852891033878808	0.5925181356986675	0.03005922123405689	0.2693109339385653	0.4699014367046093	-0.19037581825517594	0.2518434803061292	0.4423154842384798	-0.048586736809597686	0.44297439521718474	0.6256002504258923	0.09673433496506739	0.48576084406664877	0.6262025772992333	0.3670887296160444	0.27397383020543875	0.6242972801789859	0.3452345490076253	0.15071829983318002	0.7264033816031987	0.2810904369329167	0.13409515423209079	0.7140113652041293	0.3041177473023637	0.18504261838374086	0.6886928761258734	0.33543345853386536	0.13224037718421133	0.6648304300577295	0.07833671968488796	0.13749276269135086	0.5596778297104663	0.29643495671088715	0.2123731873021563	0.4656531835940785	0.15109221814659948	0.22446215625283328	0.4611870811636952	0.06567258412241353	0.23134713981060417	0.45236655302656004	0.06769599085361439	0.26585714919418824	0.39910952154138474	0.1367062517556533
156	2.6440677966101696	0.3690403608363868	0.7399699603519685	0.5497387228131949	0.3537464002253913	0.8584542232036909	0.9455717510403285	0.3611767642823544	1.068374046920836	1.3630378342869898	0.3304090979480881	0.8845544111293031	1.4317666411544983	0.4006739000205875	0.8784094436464951	1.4304579556259864	0.3534178065893523	1.1740923584436058	1.4103308217492936	0.18574081367554104	0.7266427022825197	0.5373362033648726	0.1676721874586594	0.9387368438389386	0.9448964744812256	0.16372536546097047	1.0612716781402491	1.330557276339375	0.15719002309282726	0.8696105454429902	1.40315864250356	0.10699841692925754	0.9365325889094908	1.407384676239153	0.20026384014249332	1.1528869780691013	1.3992886673467066	0.2853151577318293	0.5925141476628674	0.030078783166021524	0.26927482076136594	0.46962866458240227	-0.1907034182483707	0.2518772251689278	0.44231248525539985	-0.04858969139472843	0.444457120023911	0.6286591533760759	0.09638046456760871	0.485753135999187	0.6262407940205892	0.3670897574953407	0.2744659520624233	0.6243929843966857	0.34521055760196767	0.15269321282721343	0.7264583361616317	0.28104514794580043	0.13407287258209966	0.7139117677559	0.3032879434747945	0.1855117025600539	0.6893265677208124	0.3356308266579774	0.13221712368355934	0.6647793754763556	0.07831673077644674	0.13744738932900583	0.559783225880597	0.296566171832166	0.21231602316464826	0.4658535796362898	0.15259848721646335	0.22395578512312622	0.46232028277150955	0.06574261842085874	0.2313582402409257	0.45267065149563085	0.06771962301133691	0.2655741741384654	0.40263636087519883	0.13525565057961053
157	2.6610169491525424	0.369302905837334	0.7404225906280174	0.5498358616585381	0.35373848715403233	0.8584539218707996	0.9455607189152295	0.3625543543829277	1.0688072334479095	1.3631750974340946	0.33031796592452795	0.8842484596138931	1.4316687252493092	0.40079998846766907	0.8784754202668633	1.430351007896714	0.3535389484942591	1.1739792240362252	1.410332168875917	0.1868829250810108	0.7232586231439999	0.5374976977211633	0.16862485544809513	0.9388510384383435	0.9449175022244836	0.163467654485785	1.061692662659666	1.3318085128991268	0.15710888904071174	0.8692563583065015	1.4031077103988445	0.10699062938154913	0.9365412653816875	1.4074159290166395	0.20023175976589477	1.1523446926538983	1.3989547923347905	0.2852831224562502	0.5922971537332912	0.0296874080298552	0.2692208350675502	0.46915283445947553	-0.1914552202278215	0.2517454620247883	0.4423181122716067	-0.048596106217790196	0.44641130099284376	0.6327271920086787	0.09590670171088567	0.4857437913154494	0.6262944055143068	0.3670913806321985	0.2756851771467714	0.6256341582537027	0.34515233834442677	0.1541502064195768	0.7264942986091257	0.2810178203909711	0.13403853991622552	0.7139486320032921	0.3025862210350975	0.1856656641426954	0.689805314286844	0.3356375469544175	0.13222176168844235	0.6648117592708329	0.0783126851737392	0.13749427219599705	0.5599992960342287	0.29715932177114385	0.21165801180392252	0.46854463063820084	0.15307992880256097	0.2234716166299871	0.46432534427272004	0.06571643752775182	0.23110552214164215	0.45227770643921433	0.0671672692631388	0.2652905808255463	0.4045862600133861	0.13362050827146638
158	2.6779661016949152	0.3691198522680879	0.7407766043839461	0.54990718350132	0.3537289668348847	0.8584564634855241	0.9455550938605803	0.3643177673743139	1.0691921628765446	1.3633514732562093	0.33024945527310606	0.8840973389325245	1.4316352280462272	0.40085149853929625	0.8786233591299626	1.4301934427542518	0.35363060889548054	1.173992681575462	1.4103437022993415	0.18734470598805877	0.7220071763518072	0.5375705010447359	0.1687443119377237	0.9389130350692396	0.9449374003252797	0.16337431864347976	1.0619192735285845	1.3323386334580671	0.15708156579404783	0.8691530034127215	1.4031107220916181	0.10701641694610103	0.9365560609453046	1.407450109398213	0.2002133578434933	1.1522980185225475	1.3988425149953185	0.285189659172355	0.591806416651207	0.028803031319805224	0.26917293355675104	0.4685991518836514	-0.19241967663229287	0.25164873442164354	0.44228279862430975	-0.04859592358968149	0.44789294783620126	0.6358042508693159	0.09555153104856412	0.48572895423447743	0.6263343653798592	0.3670990425162763	0.2772835229648277	0.6286924638635968	0.34504422759213377	0.1546110027919262	0.7265824919257236	0.281010937780148	0.13394486873789443	0.7140376816139163	0.3019317950852336	0.18562497932200392	0.6899528374709366	0.3354858488692957	0.13229316650208772	0.6650931075029215	0.07829943628941102	0.13758837630730503	0.5602706689688739	0.2980742794870449	0.21098517649954224	0.47171598472805765	0.1528997685324929	0.2229000256573346	0.4656204203332168	0.06543702662647108	0.23090976174064493	0.4518491043297229	0.06712523745577031	0.2654425411956435	0.40569073344391055	0.1324386165391314
159	2.694915254237288	0.36884504085151115	0.7409032791174857	0.5498895021587293	0.3537241718913634	0.8584570738348167	0.9455581880528969	0.3656403606007078	1.0693969005428627	1.3634829803466362	0.3302436449124645	0.8841611872232417	1.4316754164189642	0.4008449146707663	0.8787604194447258	1.4301323858610764	0.35369547497689646	1.1740687740240388	1.4103530035183833	0.18734249758434035	0.7220549698548049	0.5375669770612383	0.16860014446680413	0.9389383291103659	0.9449639975659213	0.1633772990354058	1.0619967227559717	1.332399227193538	0.15707535044971727	0.8692247030650254	1.4031369381006926	0.1070392841183738	0.9366093322132341	1.407490750368523	0.2002033149659043	1.152455207410945	1.3989213244675116	0.28507027890670145	0.5911666115897349	0.027673194121198952	0.26914980650973136	0.46816997162835705	-0.19315815869404787	0.25161332172573764	0.44223442799724944	-0.0485798657710525	0.4484852592229314	0.6369875386924484	0.09542593928605496	0.48570236851686793	0.6263338977525965	0.3671147130277148	0.2784754963871635	0.6327053575430883	0.34491608624896286	0.15451964792310055	0.7268067358064142	0.280980757516159	0.13381339418707489	0.7140702278878657	0.30094830189816596	0.1851549628489425	0.6899073068370242	0.33531696899092667	0.1324511217620209	0.6657383107378206	0.07826730605309842	0.13769193761184578	0.5604792759859386	0.29889339077064786	0.21071256052575515	0.4730956058212177	0.15241136564971738	0.22239008857557258	0.46604684296378324	0.06481543611448273	0.23077496757296875	0.4517379889122622	0.06759972791968863	0.26561719388406124	0.4063361270150944	0.13194209568018045
160	2.711864406779661	0.3686420771494845	0.7408752369571359	0.5498983855315084	0.35371809451458464	0.8584515778037671	0.9455827033553058	0.36615606487910857	1.0694507894399794	1.3635314108457708	0.33031216494111293	0.8844247006673942	1.4317813799384562	0.40079702554861213	0.8788032498392575	1.430144859356666	0.35375472687768406	1.17414000188406	1.4103569307820012	0.18714197701339258	0.7222948001974098	0.5374805903289283	0.16849025781626392	0.9389594512566874	0.9449939322701378	0.16339492153250082	1.062003958403815	1.332327178159007	0.1570678737015739	0.8693490706598985	1.4031544425660216	0.10703117716172357	0.9366707885521198	1.4075173063699382	0.2001576160919099	1.1525525263642276	1.3990405708489357	0.2849820917796082	0.5906539837642066	0.026791989723886078	0.26912812710690187	0.46792296620129736	-0.1934939460857992	0.25160718267469584	0.44223450394798525	-0.04854139763939648	0.44851797442463903	0.6369724702349966	0.09544323595954886	0.48566801745094657	0.6262859701745217	0.36713576279454885	0.27890870987463506	0.6357137319422145	0.3448261049463787	0.15438585075219663	0.72721607093016	0.28085990875570993	0.13371228596870532	0.714044086988616	0.2996425342825347	0.1841738044603301	0.6899768020371132	0.33524244308620293	0.13264986092748748	0.6665583304130664	0.07824299235349531	0.13780082488070902	0.5605633338254667	0.29937686375316375	0.2106672084758671	0.47325542104947876	0.15175168883979798	0.22217737742969065	0.4661416741307529	0.0640591988084377	0.23065710282791504	0.4517789449331523	0.0677201764278247	0.2650178820686528	0.4064104635132648	0.1314392345863553
